<?xml version="1.0" encoding="iso-8859-1"?>
<!-- Generator: Adobe Illustrator 19.0.0, SVG Export Plug-In . SVG Version: 6.00 Build 0)  -->
<svg version="1.1" id="Capa_1" xmlns="http://www.w3.org/2000/svg" xmlns:xlink="http://www.w3.org/1999/xlink" x="0px" y="0px"
	 viewBox="0 0 512 512" style="enable-background:new 0 0 512 512;" xml:space="preserve">
<path style="fill:#EEA33E;" d="M400.577,504.498h-64.998V119.186h64.998c2.762,0,5.001,2.24,5.001,5.001v375.31
	C405.578,502.26,403.34,504.498,400.577,504.498z"/>
<path style="fill:#DF862A;" d="M400.577,504.498h-38.292V119.186h38.292c2.762,0,5.001,2.24,5.001,5.001v375.31
	C405.578,502.26,403.34,504.498,400.577,504.498z"/>
<path style="fill:#E2E8ED;" d="M335.58,119.186l35,29.112l24.364-20.266c3.598-2.993,1.481-8.846-3.198-8.846H335.58z"/>
<path style="fill:#49B76E;" d="M158.768,119.186V41.218c0-2.762-2.24-5.001-5.001-5.001h-42.342c-2.762,0-5.001-2.24-5.001-5.001
	V12.503c0-2.762,2.24-5.001,5.001-5.001h60.347c8.286,0,15.004,6.718,15.004,15.004v96.68H158.768z"/>
<path style="fill:#14802B;" d="M186.775,22.503v96.684h-16.654V22.503c0-8.282-6.712-15.004-15.004-15.004h16.654
	C180.063,7.499,186.775,14.221,186.775,22.503z"/>
<path style="fill:#EEA33E;" d="M336.025,504.498H111.424c-2.762,0-5.001-2.24-5.001-5.001v-375.31c0-2.762,2.24-5.001,5.001-5.001
	h224.601V504.498z"/>
<rect x="292.733" y="119.19" style="fill:#DF862A;" width="43.291" height="385.316"/>
<rect x="106.427" y="199.97" style="fill:#E2E8ED;" width="299.154" height="223.756"/>
<g>
	<rect x="292.733" y="199.97" style="fill:#CFDDE8;" width="43.291" height="223.756"/>
	<rect x="362.28" y="199.97" style="fill:#CFDDE8;" width="43.291" height="223.756"/>
</g>
<path d="M400.577,111.684h-8.832h-55.721h-0.445h-66.631c-4.143,0-7.502,3.359-7.502,7.502c0,4.143,3.359,7.502,7.502,7.502h59.129
	v65.775H113.924v-65.775h44.844h28.006h29.858c4.143,0,7.502-3.359,7.502-7.502c0-4.143-3.359-7.502-7.502-7.502h-22.357V22.506
	C194.276,10.096,184.18,0,171.77,0h-60.347C104.528,0,98.92,5.608,98.92,12.503v18.713c0,6.895,5.608,12.503,12.503,12.503h39.843
	v67.965h-39.843c-6.895,0-12.503,5.608-12.503,12.503v75.778v223.754v75.779c0,6.895,5.608,12.503,12.503,12.503h38.192
	c4.143,0,7.502-3.359,7.502-7.502s-3.359-7.502-7.502-7.502h-35.692V431.22h214.153v65.776H201.629
	c-4.143,0-7.502,3.359-7.502,7.502s3.359,7.502,7.502,7.502h133.95h0.445h64.553c6.895,0,12.503-5.608,12.503-12.503v-75.779
	V199.966v-75.778C413.08,117.293,407.472,111.684,400.577,111.684z M153.767,28.715h-39.843V15.004h57.846
	c4.137,0,7.502,3.365,7.502,7.502v89.178H166.27V41.218C166.27,34.324,160.661,28.715,153.767,28.715z M398.076,416.216h-54.551
	V207.467h54.551V416.216z M343.527,192.464v-56.91l22.256,18.512c1.39,1.156,3.094,1.734,4.797,1.734s3.407-0.578,4.797-1.734
	l22.7-18.882v57.28L343.527,192.464L343.527,192.464z M384.828,126.687l-14.249,11.852l-14.25-11.852
	C356.33,126.687,384.828,126.687,384.828,126.687z M113.925,416.216V207.467h214.153v208.75H113.925V416.216z M343.527,496.996
	V431.22h54.551v65.776H343.527z"/>
<path style="fill:#49B76E;" d="M294.593,239.446c0,0-17.787-8.476-35.071,3.603c-17.577,11.646-16.218,31.304-16.218,31.304
	s17.787,8.476,35.071-3.603C295.952,259.103,294.593,239.446,294.593,239.446z"/>
<path style="fill:#14802B;" d="M278.374,270.748c-17.282,12.079-35.068,3.604-35.068,3.604s-0.166-2.418,0.373-6.061
	c6.507,1.646,18.388,2.848,30.044-5.297c11.411-7.563,14.839-18.498,15.842-25.24c3.141,0.796,5.026,1.695,5.026,1.695
	S295.953,259.104,278.374,270.748z"/>
<circle style="fill:#EEA33E;" cx="228.427" cy="328.582" r="58.535"/>
<path style="fill:#DF862A;" d="M286.96,327.567c0.563,32.329-25.182,58.988-57.511,59.551
	c-23.987,0.418-44.842-13.643-54.241-34.127c8.45,4.482,18.128,6.944,28.365,6.766c32.329-0.563,58.074-27.232,57.511-59.551
	c-0.145-8.341-2.028-16.257-5.31-23.384C274.006,286.46,286.575,305.475,286.96,327.567z"/>
<path d="M282.596,276.953c20.898-13.905,19.549-37.044,19.482-38.024c-0.187-2.7-1.813-5.09-4.257-6.255
	c-0.886-0.422-21.915-10.167-42.519,4.173c-9.249,6.154-14.139,14.112-16.712,21.159v-14.264c0-4.143-3.359-7.502-7.502-7.502
	c-4.143,0-7.502,3.359-7.502,7.502v18.985c-16.233,1.173-31.268,8.181-42.663,19.98c-12.254,12.689-18.834,29.39-18.527,47.029
	s7.465,34.099,20.154,46.354c12.405,11.981,28.646,18.538,45.846,18.538c0.393,0,0.787-0.003,1.181-0.01
	c17.637-0.308,34.099-7.465,46.355-20.154c12.254-12.689,18.834-29.391,18.527-47.029c-0.315-18.06-7.894-34.311-19.891-46.035
	C277.221,280.277,279.912,278.82,282.596,276.953z M263.666,249.303c0.052-0.034,0.103-0.069,0.154-0.104
	c8.772-6.13,17.699-5.585,22.944-4.423c-0.842,5.305-3.612,13.81-12.532,19.721c-0.052,0.034-0.103,0.069-0.154,0.104
	c-5.49,3.837-11.043,5.06-15.71,5.153c-2.198-1.122-4.468-2.118-6.797-2.993C252.802,261.527,255.906,254.445,263.666,249.303z
	 M229.317,379.616c-13.615,0.245-26.538-4.847-36.344-14.318c-9.806-9.47-15.337-22.193-15.575-35.824
	c-0.237-13.63,4.847-26.538,14.318-36.344c9.47-9.806,22.192-15.337,35.823-15.575c0.302-0.005,0.601-0.008,0.902-0.008
	c27.731,0,50.532,22.313,51.017,50.148C279.949,355.835,257.455,379.126,229.317,379.616z"/>
<g>
</g>
<g>
</g>
<g>
</g>
<g>
</g>
<g>
</g>
<g>
</g>
<g>
</g>
<g>
</g>
<g>
</g>
<g>
</g>
<g>
</g>
<g>
</g>
<g>
</g>
<g>
</g>
<g>
</g>
</svg>
